<?xml version="1.0" encoding="UTF-8"?>
<svg xmlns="http://www.w3.org/2000/svg" width="512" height="512" viewBox="0 0 512 512"><g><path d="M70.806,251.794A8,8,0,0,0,64,248H48.169C52.389,137,143.989,48,256,48A208.074,208.074,0,0,1,449.271,178.964a8,8,0,1,0,14.861-5.928A224.023,224.023,0,0,0,32.156,248H16a8,8,0,0,0-7.155,11.578l24,48a8,8,0,0,0,14.31,0l24-48A8,8,0,0,0,70.806,251.794ZM40,286.111,28.944,264H51.056Z"/><path d="M502.856,252.422l-24-48a8,8,0,0,0-14.31,0l-24,48A8,8,0,0,0,447.7,264h16.831c-4.22,111-95.82,200-207.831,200A208.071,208.071,0,0,1,63.431,333.036a8,8,0,1,0-14.862,5.928A224.023,224.023,0,0,0,480.545,264H495.7a8,8,0,0,0,7.155-11.578ZM460.646,248,471.7,225.889,482.757,248Z"/><path d="M393.32,144.11l-96-16A8.007,8.007,0,0,0,288,136a32,32,0,0,1-64,0,8.007,8.007,0,0,0-9.32-7.89l-96,16A8,8,0,0,0,112,152v64a8,8,0,0,0,8,8h48V392a8,8,0,0,0,8,8H336a8,8,0,0,0,8-8V224h48a8,8,0,0,0,8-8V152A8,8,0,0,0,393.32,144.11ZM384,208H336a8,8,0,0,0-8,8V384H184V216a8,8,0,0,0-8-8H128V158.78l80.9-13.49a48.009,48.009,0,0,0,94.2,0L384,158.78Z"/></g></svg>
